{
    "asset" : {
        "generator" : "Khronos glTF Blender I/O v1.6.16",
        "version" : "2.0"
    },
    "scene" : 0,
    "scenes" : [
        {
            "name" : "Scene",
            "nodes" : [
                6,
                7
            ]
        }
    ],
    "nodes" : [
        {
            "name" : "beak_down_02",
            "rotation" : [
                3.352761552832817e-07,
                -5.684341886080802e-14,
                -1.612241325957709e-14,
                1
            ],
            "translation" : [
                2.986483673209084e-14,
                0.16982269287109375,
                1.9073488601861754e-06
            ]
        },
        {
            "children" : [
                0
            ],
            "name" : "beak_down_01",
            "rotation" : [
                -0.9238796830177307,
                -5.7783562823487955e-08,
                -1.3459001166164775e-14,
                0.382683128118515
            ],
            "scale" : [
                1,
                0.9999999403953552,
                0.9999999403953552
            ],
            "translation" : [
                9.170542369929535e-08,
                1.1843606233596802,
                -0.6073397994041443
            ]
        },
        {
            "name" : "beak_up_03",
            "rotation" : [
                9.685756197086448e-08,
                1.2705494208814505e-21,
                2.7500006717200978e-15,
                1
            ],
            "scale" : [
                1,
                0.9999999403953552,
                0.9999999403953552
            ],
            "translation" : [
                1.5775714068411162e-11,
                0.10584533214569092,
                -3.127753734588623e-05
            ]
        },
        {
            "children" : [
                2
            ],
            "name" : "beak_up_02",
            "rotation" : [
                -2.9051443561911583e-07,
                1.192091971802256e-07,
                -1.2820600137075644e-10,
                1
            ],
            "translation" : [
                1.5785421580982728e-11,
                0.16961874067783356,
                -6.341561675071716e-05
            ]
        },
        {
            "children" : [
                3
            ],
            "name" : "beak_up_01",
            "rotation" : [
                -0.4336211681365967,
                -2.4716548252534665e-11,
                -6.552626530265115e-08,
                0.9010953903198242
            ],
            "scale" : [
                1,
                0.9999999403953552,
                1
            ],
            "translation" : [
                9.170474868369638e-08,
                1.1843550205230713,
                -0.6073323488235474
            ]
        },
        {
            "children" : [
                1,
                4
            ],
            "name" : "Joint_Base",
            "rotation" : [
                1.12521787948381e-14,
                -1,
                -1.3415245803116704e-07,
                7.549790126404332e-08
            ],
            "translation" : [
                -6.093616167213156e-10,
                -0.4228467345237732,
                -0.00526476139202714
            ]
        },
        {
            "children" : [
                5
            ],
            "name" : "Armature.001"
        },
        {
            "mesh" : 0,
            "name" : "Suzanne",
            "rotation" : [
                0,
                0.7071068286895752,
                0,
                0.7071068286895752
            ]
        }
    ],
    "animations" : [
        {
            "channels" : [
                {
                    "sampler" : 0,
                    "target" : {
                        "node" : 5,
                        "path" : "translation"
                    }
                },
                {
                    "sampler" : 1,
                    "target" : {
                        "node" : 5,
                        "path" : "rotation"
                    }
                },
                {
                    "sampler" : 2,
                    "target" : {
                        "node" : 5,
                        "path" : "scale"
                    }
                },
                {
                    "sampler" : 3,
                    "target" : {
                        "node" : 1,
                        "path" : "translation"
                    }
                },
                {
                    "sampler" : 4,
                    "target" : {
                        "node" : 1,
                        "path" : "rotation"
                    }
                },
                {
                    "sampler" : 5,
                    "target" : {
                        "node" : 1,
                        "path" : "scale"
                    }
                },
                {
                    "sampler" : 6,
                    "target" : {
                        "node" : 0,
                        "path" : "translation"
                    }
                },
                {
                    "sampler" : 7,
                    "target" : {
                        "node" : 0,
                        "path" : "rotation"
                    }
                },
                {
                    "sampler" : 8,
                    "target" : {
                        "node" : 0,
                        "path" : "scale"
                    }
                },
                {
                    "sampler" : 9,
                    "target" : {
                        "node" : 4,
                        "path" : "translation"
                    }
                },
                {
                    "sampler" : 10,
                    "target" : {
                        "node" : 4,
                        "path" : "rotation"
                    }
                },
                {
                    "sampler" : 11,
                    "target" : {
                        "node" : 4,
                        "path" : "scale"
                    }
                },
                {
                    "sampler" : 12,
                    "target" : {
                        "node" : 3,
                        "path" : "translation"
                    }
                },
                {
                    "sampler" : 13,
                    "target" : {
                        "node" : 3,
                        "path" : "rotation"
                    }
                },
                {
                    "sampler" : 14,
                    "target" : {
                        "node" : 3,
                        "path" : "scale"
                    }
                },
                {
                    "sampler" : 15,
                    "target" : {
                        "node" : 2,
                        "path" : "translation"
                    }
                },
                {
                    "sampler" : 16,
                    "target" : {
                        "node" : 2,
                        "path" : "rotation"
                    }
                },
                {
                    "sampler" : 17,
                    "target" : {
                        "node" : 2,
                        "path" : "scale"
                    }
                }
            ],
            "name" : "Anim_0",
            "samplers" : [
                {
                    "input" : 5,
                    "interpolation" : "LINEAR",
                    "output" : 6
                },
                {
                    "input" : 5,
                    "interpolation" : "LINEAR",
                    "output" : 7
                },
                {
                    "input" : 5,
                    "interpolation" : "LINEAR",
                    "output" : 8
                },
                {
                    "input" : 5,
                    "interpolation" : "LINEAR",
                    "output" : 9
                },
                {
                    "input" : 5,
                    "interpolation" : "LINEAR",
                    "output" : 10
                },
                {
                    "input" : 5,
                    "interpolation" : "LINEAR",
                    "output" : 11
                },
                {
                    "input" : 5,
                    "interpolation" : "LINEAR",
                    "output" : 12
                },
                {
                    "input" : 5,
                    "interpolation" : "LINEAR",
                    "output" : 13
                },
                {
                    "input" : 5,
                    "interpolation" : "LINEAR",
                    "output" : 14
                },
                {
                    "input" : 5,
                    "interpolation" : "LINEAR",
                    "output" : 15
                },
                {
                    "input" : 5,
                    "interpolation" : "LINEAR",
                    "output" : 16
                },
                {
                    "input" : 5,
                    "interpolation" : "LINEAR",
                    "output" : 17
                },
                {
                    "input" : 5,
                    "interpolation" : "LINEAR",
                    "output" : 18
                },
                {
                    "input" : 5,
                    "interpolation" : "LINEAR",
                    "output" : 19
                },
                {
                    "input" : 5,
                    "interpolation" : "LINEAR",
                    "output" : 20
                },
                {
                    "input" : 5,
                    "interpolation" : "LINEAR",
                    "output" : 21
                },
                {
                    "input" : 5,
                    "interpolation" : "LINEAR",
                    "output" : 22
                },
                {
                    "input" : 5,
                    "interpolation" : "LINEAR",
                    "output" : 23
                }
            ]
        }
    ],
    "materials" : [
        {
            "doubleSided" : true,
            "name" : "Material.001",
            "normalTexture" : {
                "index" : 0,
                "scale" : 0.11999999731779099
            },
            "pbrMetallicRoughness" : {
                "baseColorFactor" : [
                    0.8000000715255737,
                    0.5948024392127991,
                    0.01583731174468994,
                    1
                ],
                "roughnessFactor" : 0.1744185984134674
            }
        }
    ],
    "meshes" : [
        {
            "name" : "Suzanne",
            "primitives" : [
                {
                    "attributes" : {
                        "POSITION" : 0,
                        "NORMAL" : 1,
                        "TANGENT" : 2,
                        "TEXCOORD_0" : 3
                    },
                    "indices" : 4,
                    "material" : 0
                }
            ]
        }
    ],
    "textures" : [
        {
            "sampler" : 0,
            "source" : 0
        }
    ],
    "images" : [
        {
            "bufferView" : 5,
            "mimeType" : "image/jpeg",
            "name" : "normal"
        }
    ],
    "accessors" : [
        {
            "bufferView" : 0,
            "componentType" : 5126,
            "count" : 10601,
            "max" : [
                1.328185796737671,
                0.9392362236976624,
                0.8224414587020874
            ],
            "min" : [
                -1.328185796737671,
                -0.971822202205658,
                -0.7782661318778992
            ],
            "type" : "VEC3"
        },
        {
            "bufferView" : 1,
            "componentType" : 5126,
            "count" : 10601,
            "type" : "VEC3"
        },
        {
            "bufferView" : 2,
            "componentType" : 5126,
            "count" : 10601,
            "type" : "VEC4"
        },
        {
            "bufferView" : 3,
            "componentType" : 5126,
            "count" : 10601,
            "type" : "VEC2"
        },
        {
            "bufferView" : 4,
            "componentType" : 5123,
            "count" : 47232,
            "type" : "SCALAR"
        },
        {
            "bufferView" : 6,
            "componentType" : 5126,
            "count" : 25,
            "max" : [
                1
            ],
            "min" : [
                0
            ],
            "type" : "SCALAR"
        },
        {
            "bufferView" : 7,
            "componentType" : 5126,
            "count" : 25,
            "type" : "VEC3"
        },
        {
            "bufferView" : 8,
            "componentType" : 5126,
            "count" : 25,
            "type" : "VEC4"
        },
        {
            "bufferView" : 9,
            "componentType" : 5126,
            "count" : 25,
            "type" : "VEC3"
        },
        {
            "bufferView" : 10,
            "componentType" : 5126,
            "count" : 25,
            "type" : "VEC3"
        },
        {
            "bufferView" : 11,
            "componentType" : 5126,
            "count" : 25,
            "type" : "VEC4"
        },
        {
            "bufferView" : 12,
            "componentType" : 5126,
            "count" : 25,
            "type" : "VEC3"
        },
        {
            "bufferView" : 13,
            "componentType" : 5126,
            "count" : 25,
            "type" : "VEC3"
        },
        {
            "bufferView" : 14,
            "componentType" : 5126,
            "count" : 25,
            "type" : "VEC4"
        },
        {
            "bufferView" : 15,
            "componentType" : 5126,
            "count" : 25,
            "type" : "VEC3"
        },
        {
            "bufferView" : 16,
            "componentType" : 5126,
            "count" : 25,
            "type" : "VEC3"
        },
        {
            "bufferView" : 17,
            "componentType" : 5126,
            "count" : 25,
            "type" : "VEC4"
        },
        {
            "bufferView" : 18,
            "componentType" : 5126,
            "count" : 25,
            "type" : "VEC3"
        },
        {
            "bufferView" : 19,
            "componentType" : 5126,
            "count" : 25,
            "type" : "VEC3"
        },
        {
            "bufferView" : 20,
            "componentType" : 5126,
            "count" : 25,
            "type" : "VEC4"
        },
        {
            "bufferView" : 21,
            "componentType" : 5126,
            "count" : 25,
            "type" : "VEC3"
        },
        {
            "bufferView" : 22,
            "componentType" : 5126,
            "count" : 25,
            "type" : "VEC3"
        },
        {
            "bufferView" : 23,
            "componentType" : 5126,
            "count" : 25,
            "type" : "VEC4"
        },
        {
            "bufferView" : 24,
            "componentType" : 5126,
            "count" : 25,
            "type" : "VEC3"
        }
    ],
    "bufferViews" : [
        {
            "buffer" : 0,
            "byteLength" : 127212,
            "byteOffset" : 0
        },
        {
            "buffer" : 0,
            "byteLength" : 127212,
            "byteOffset" : 127212
        },
        {
            "buffer" : 0,
            "byteLength" : 169616,
            "byteOffset" : 254424
        },
        {
            "buffer" : 0,
            "byteLength" : 84808,
            "byteOffset" : 424040
        },
        {
            "buffer" : 0,
            "byteLength" : 94464,
            "byteOffset" : 508848
        },
        {
            "buffer" : 0,
            "byteLength" : 771379,
            "byteOffset" : 603312
        },
        {
            "buffer" : 0,
            "byteLength" : 100,
            "byteOffset" : 1374692
        },
        {
            "buffer" : 0,
            "byteLength" : 300,
            "byteOffset" : 1374792
        },
        {
            "buffer" : 0,
            "byteLength" : 400,
            "byteOffset" : 1375092
        },
        {
            "buffer" : 0,
            "byteLength" : 300,
            "byteOffset" : 1375492
        },
        {
            "buffer" : 0,
            "byteLength" : 300,
            "byteOffset" : 1375792
        },
        {
            "buffer" : 0,
            "byteLength" : 400,
            "byteOffset" : 1376092
        },
        {
            "buffer" : 0,
            "byteLength" : 300,
            "byteOffset" : 1376492
        },
        {
            "buffer" : 0,
            "byteLength" : 300,
            "byteOffset" : 1376792
        },
        {
            "buffer" : 0,
            "byteLength" : 400,
            "byteOffset" : 1377092
        },
        {
            "buffer" : 0,
            "byteLength" : 300,
            "byteOffset" : 1377492
        },
        {
            "buffer" : 0,
            "byteLength" : 300,
            "byteOffset" : 1377792
        },
        {
            "buffer" : 0,
            "byteLength" : 400,
            "byteOffset" : 1378092
        },
        {
            "buffer" : 0,
            "byteLength" : 300,
            "byteOffset" : 1378492
        },
        {
            "buffer" : 0,
            "byteLength" : 300,
            "byteOffset" : 1378792
        },
        {
            "buffer" : 0,
            "byteLength" : 400,
            "byteOffset" : 1379092
        },
        {
            "buffer" : 0,
            "byteLength" : 300,
            "byteOffset" : 1379492
        },
        {
            "buffer" : 0,
            "byteLength" : 300,
            "byteOffset" : 1379792
        },
        {
            "buffer" : 0,
            "byteLength" : 400,
            "byteOffset" : 1380092
        },
        {
            "buffer" : 0,
            "byteLength" : 300,
            "byteOffset" : 1380492
        }
    ],
    "samplers" : [
        {
            "magFilter" : 9729,
            "minFilter" : 9987
        }
    ],
    "buffers" : [
        {
            "byteLength" : 1380792,
            "uri" : "data:application/octet-stream;base64,"
        }
    ]
}
