{
    "asset" : {
        "generator" : "Khronos glTF Blender I/O v1.6.16",
        "version" : "2.0"
    },
    "scene" : 0,
    "scenes" : [
        {
            "name" : "Scene",
            "nodes" : [
                8
            ]
        }
    ],
    "nodes" : [
        {
            "name" : "Golden_Duck"
        },
        {
            "name" : "beak_down_02",
            "rotation" : [
                6.332993507385254e-07,
                -4.440892098500626e-14,
                -5.73236865419012e-14,
                1
            ],
            "scale" : [
                1,
                1,
                1.0000001192092896
            ],
            "translation" : [
                8.681935243426073e-14,
                0.15902486443519592,
                1.6987330582196591e-06
            ]
        },
        {
            "children" : [
                1
            ],
            "name" : "beak_down_01",
            "rotation" : [
                -0.9238796830177307,
                -5.778352019092381e-08,
                -9.90197913898136e-14,
                0.382683128118515
            ],
            "scale" : [
                1,
                1,
                0.9999998211860657
            ],
            "translation" : [
                8.587458921738289e-08,
                1.1090556383132935,
                -0.5687236785888672
            ]
        },
        {
            "name" : "beak_up_03",
            "rotation" : [
                -2.7567148208618164e-07,
                -3.552729772426499e-15,
                -1.3942053891588535e-13,
                1
            ],
            "translation" : [
                1.470762400757053e-11,
                0.09911549091339111,
                -2.8714539439533837e-05
            ]
        },
        {
            "children" : [
                3
            ],
            "name" : "beak_up_02",
            "rotation" : [
                3.5770068507190445e-07,
                1.1920920428565296e-07,
                -1.280395095504261e-10,
                1
            ],
            "scale" : [
                1,
                0.9999999403953552,
                0.9999998807907104
            ],
            "translation" : [
                1.5044562817756457e-11,
                0.15883632004261017,
                -5.8319368690717965e-05
            ]
        },
        {
            "children" : [
                4
            ],
            "name" : "beak_up_01",
            "rotation" : [
                -0.43362119793891907,
                -2.4717530106022068e-11,
                -6.552626530265115e-08,
                0.9010952711105347
            ],
            "translation" : [
                8.587386446379242e-08,
                1.1090501546859741,
                -0.5687161087989807
            ]
        },
        {
            "children" : [
                2,
                5
            ],
            "name" : "Joint_Base",
            "rotation" : [
                1.1240510068956724e-14,
                -1,
                -1.3392062214734324e-07,
                7.549790126404332e-08
            ],
            "translation" : [
                -5.706166650298883e-10,
                -0.39596089720726013,
                -0.0049300123937428
            ]
        },
        {
            "mesh" : 0,
            "name" : "Golden_Duck.001",
            "skin" : 0
        },
        {
            "children" : [
                0,
                7,
                6
            ],
            "name" : "Armature.001"
        }
    ],
    "animations" : [
        {
            "channels" : [
                {
                    "sampler" : 0,
                    "target" : {
                        "node" : 6,
                        "path" : "translation"
                    }
                },
                {
                    "sampler" : 1,
                    "target" : {
                        "node" : 6,
                        "path" : "rotation"
                    }
                },
                {
                    "sampler" : 2,
                    "target" : {
                        "node" : 6,
                        "path" : "scale"
                    }
                },
                {
                    "sampler" : 3,
                    "target" : {
                        "node" : 2,
                        "path" : "translation"
                    }
                },
                {
                    "sampler" : 4,
                    "target" : {
                        "node" : 2,
                        "path" : "rotation"
                    }
                },
                {
                    "sampler" : 5,
                    "target" : {
                        "node" : 2,
                        "path" : "scale"
                    }
                },
                {
                    "sampler" : 6,
                    "target" : {
                        "node" : 1,
                        "path" : "translation"
                    }
                },
                {
                    "sampler" : 7,
                    "target" : {
                        "node" : 1,
                        "path" : "rotation"
                    }
                },
                {
                    "sampler" : 8,
                    "target" : {
                        "node" : 1,
                        "path" : "scale"
                    }
                },
                {
                    "sampler" : 9,
                    "target" : {
                        "node" : 5,
                        "path" : "translation"
                    }
                },
                {
                    "sampler" : 10,
                    "target" : {
                        "node" : 5,
                        "path" : "rotation"
                    }
                },
                {
                    "sampler" : 11,
                    "target" : {
                        "node" : 5,
                        "path" : "scale"
                    }
                },
                {
                    "sampler" : 12,
                    "target" : {
                        "node" : 4,
                        "path" : "translation"
                    }
                },
                {
                    "sampler" : 13,
                    "target" : {
                        "node" : 4,
                        "path" : "rotation"
                    }
                },
                {
                    "sampler" : 14,
                    "target" : {
                        "node" : 4,
                        "path" : "scale"
                    }
                },
                {
                    "sampler" : 15,
                    "target" : {
                        "node" : 3,
                        "path" : "translation"
                    }
                },
                {
                    "sampler" : 16,
                    "target" : {
                        "node" : 3,
                        "path" : "rotation"
                    }
                },
                {
                    "sampler" : 17,
                    "target" : {
                        "node" : 3,
                        "path" : "scale"
                    }
                }
            ],
            "name" : "Anim_0",
            "samplers" : [
                {
                    "input" : 8,
                    "interpolation" : "LINEAR",
                    "output" : 9
                },
                {
                    "input" : 8,
                    "interpolation" : "LINEAR",
                    "output" : 10
                },
                {
                    "input" : 8,
                    "interpolation" : "LINEAR",
                    "output" : 11
                },
                {
                    "input" : 8,
                    "interpolation" : "LINEAR",
                    "output" : 12
                },
                {
                    "input" : 8,
                    "interpolation" : "LINEAR",
                    "output" : 13
                },
                {
                    "input" : 8,
                    "interpolation" : "LINEAR",
                    "output" : 14
                },
                {
                    "input" : 8,
                    "interpolation" : "LINEAR",
                    "output" : 15
                },
                {
                    "input" : 8,
                    "interpolation" : "LINEAR",
                    "output" : 16
                },
                {
                    "input" : 8,
                    "interpolation" : "LINEAR",
                    "output" : 17
                },
                {
                    "input" : 8,
                    "interpolation" : "LINEAR",
                    "output" : 18
                },
                {
                    "input" : 8,
                    "interpolation" : "LINEAR",
                    "output" : 19
                },
                {
                    "input" : 8,
                    "interpolation" : "LINEAR",
                    "output" : 20
                },
                {
                    "input" : 8,
                    "interpolation" : "LINEAR",
                    "output" : 21
                },
                {
                    "input" : 8,
                    "interpolation" : "LINEAR",
                    "output" : 22
                },
                {
                    "input" : 8,
                    "interpolation" : "LINEAR",
                    "output" : 23
                },
                {
                    "input" : 8,
                    "interpolation" : "LINEAR",
                    "output" : 24
                },
                {
                    "input" : 8,
                    "interpolation" : "LINEAR",
                    "output" : 25
                },
                {
                    "input" : 8,
                    "interpolation" : "LINEAR",
                    "output" : 26
                }
            ]
        }
    ],
    "materials" : [
        {
            "doubleSided" : true,
            "name" : "Golden_Duck.001",
            "normalTexture" : {
                "index" : 0
            },
            "pbrMetallicRoughness" : {
                "baseColorFactor" : [
                    0.800000011920929,
                    0.800000011920929,
                    0.800000011920929,
                    1
                ],
                "baseColorTexture" : {
                    "index" : 1
                },
                "metallicRoughnessTexture" : {
                    "index" : 2
                }
            }
        }
    ],
    "meshes" : [
        {
            "name" : "Golden_Duck.001",
            "primitives" : [
                {
                    "attributes" : {
                        "POSITION" : 0,
                        "NORMAL" : 1,
                        "TANGENT" : 2,
                        "TEXCOORD_0" : 3,
                        "JOINTS_0" : 4,
                        "WEIGHTS_0" : 5
                    },
                    "indices" : 6,
                    "material" : 0
                }
            ]
        }
    ],
    "textures" : [
        {
            "sampler" : 0,
            "source" : 0
        },
        {
            "sampler" : 0,
            "source" : 1
        },
        {
            "sampler" : 0,
            "source" : 2
        }
    ],
    "images" : [
        {
            "bufferView" : 7,
            "mimeType" : "image/jpeg",
            "name" : "Image_2"
        },
        {
            "bufferView" : 8,
            "mimeType" : "image/jpeg",
            "name" : "Image_0"
        },
        {
            "bufferView" : 9,
            "mimeType" : "image/jpeg",
            "name" : "Image_1"
        }
    ],
    "skins" : [
        {
            "inverseBindMatrices" : 7,
            "joints" : [
                6,
                2,
                1,
                5,
                4,
                3
            ],
            "name" : "Armature.001"
        }
    ],
    "accessors" : [
        {
            "bufferView" : 0,
            "componentType" : 5126,
            "count" : 6578,
            "max" : [
                0.7003050446510315,
                1.2169933319091797,
                0.7896754741668701
            ],
            "min" : [
                -0.7003050446510315,
                -0.34341076016426086,
                -0.7700843811035156
            ],
            "type" : "VEC3"
        },
        {
            "bufferView" : 1,
            "componentType" : 5126,
            "count" : 6578,
            "type" : "VEC3"
        },
        {
            "bufferView" : 2,
            "componentType" : 5126,
            "count" : 6578,
            "type" : "VEC4"
        },
        {
            "bufferView" : 3,
            "componentType" : 5126,
            "count" : 6578,
            "type" : "VEC2"
        },
        {
            "bufferView" : 4,
            "componentType" : 5121,
            "count" : 6578,
            "type" : "VEC4"
        },
        {
            "bufferView" : 5,
            "componentType" : 5126,
            "count" : 6578,
            "type" : "VEC4"
        },
        {
            "bufferView" : 6,
            "componentType" : 5123,
            "count" : 38244,
            "type" : "SCALAR"
        },
        {
            "bufferView" : 10,
            "componentType" : 5126,
            "count" : 6,
            "type" : "MAT4"
        },
        {
            "bufferView" : 11,
            "componentType" : 5126,
            "count" : 25,
            "max" : [
                1
            ],
            "min" : [
                0
            ],
            "type" : "SCALAR"
        },
        {
            "bufferView" : 12,
            "componentType" : 5126,
            "count" : 25,
            "type" : "VEC3"
        },
        {
            "bufferView" : 13,
            "componentType" : 5126,
            "count" : 25,
            "type" : "VEC4"
        },
        {
            "bufferView" : 14,
            "componentType" : 5126,
            "count" : 25,
            "type" : "VEC3"
        },
        {
            "bufferView" : 15,
            "componentType" : 5126,
            "count" : 25,
            "type" : "VEC3"
        },
        {
            "bufferView" : 16,
            "componentType" : 5126,
            "count" : 25,
            "type" : "VEC4"
        },
        {
            "bufferView" : 17,
            "componentType" : 5126,
            "count" : 25,
            "type" : "VEC3"
        },
        {
            "bufferView" : 18,
            "componentType" : 5126,
            "count" : 25,
            "type" : "VEC3"
        },
        {
            "bufferView" : 19,
            "componentType" : 5126,
            "count" : 25,
            "type" : "VEC4"
        },
        {
            "bufferView" : 20,
            "componentType" : 5126,
            "count" : 25,
            "type" : "VEC3"
        },
        {
            "bufferView" : 21,
            "componentType" : 5126,
            "count" : 25,
            "type" : "VEC3"
        },
        {
            "bufferView" : 22,
            "componentType" : 5126,
            "count" : 25,
            "type" : "VEC4"
        },
        {
            "bufferView" : 23,
            "componentType" : 5126,
            "count" : 25,
            "type" : "VEC3"
        },
        {
            "bufferView" : 24,
            "componentType" : 5126,
            "count" : 25,
            "type" : "VEC3"
        },
        {
            "bufferView" : 25,
            "componentType" : 5126,
            "count" : 25,
            "type" : "VEC4"
        },
        {
            "bufferView" : 26,
            "componentType" : 5126,
            "count" : 25,
            "type" : "VEC3"
        },
        {
            "bufferView" : 27,
            "componentType" : 5126,
            "count" : 25,
            "type" : "VEC3"
        },
        {
            "bufferView" : 28,
            "componentType" : 5126,
            "count" : 25,
            "type" : "VEC4"
        },
        {
            "bufferView" : 29,
            "componentType" : 5126,
            "count" : 25,
            "type" : "VEC3"
        }
    ],
    "bufferViews" : [
        {
            "buffer" : 0,
            "byteLength" : 78936,
            "byteOffset" : 0
        },
        {
            "buffer" : 0,
            "byteLength" : 78936,
            "byteOffset" : 78936
        },
        {
            "buffer" : 0,
            "byteLength" : 105248,
            "byteOffset" : 157872
        },
        {
            "buffer" : 0,
            "byteLength" : 52624,
            "byteOffset" : 263120
        },
        {
            "buffer" : 0,
            "byteLength" : 26312,
            "byteOffset" : 315744
        },
        {
            "buffer" : 0,
            "byteLength" : 105248,
            "byteOffset" : 342056
        },
        {
            "buffer" : 0,
            "byteLength" : 76488,
            "byteOffset" : 447304
        },
        {
            "buffer" : 0,
            "byteLength" : 104668,
            "byteOffset" : 523792
        },
        {
            "buffer" : 0,
            "byteLength" : 26583,
            "byteOffset" : 628460
        },
        {
            "buffer" : 0,
            "byteLength" : 122779,
            "byteOffset" : 655044
        },
        {
            "buffer" : 0,
            "byteLength" : 384,
            "byteOffset" : 777824
        },
        {
            "buffer" : 0,
            "byteLength" : 100,
            "byteOffset" : 778208
        },
        {
            "buffer" : 0,
            "byteLength" : 300,
            "byteOffset" : 778308
        },
        {
            "buffer" : 0,
            "byteLength" : 400,
            "byteOffset" : 778608
        },
        {
            "buffer" : 0,
            "byteLength" : 300,
            "byteOffset" : 779008
        },
        {
            "buffer" : 0,
            "byteLength" : 300,
            "byteOffset" : 779308
        },
        {
            "buffer" : 0,
            "byteLength" : 400,
            "byteOffset" : 779608
        },
        {
            "buffer" : 0,
            "byteLength" : 300,
            "byteOffset" : 780008
        },
        {
            "buffer" : 0,
            "byteLength" : 300,
            "byteOffset" : 780308
        },
        {
            "buffer" : 0,
            "byteLength" : 400,
            "byteOffset" : 780608
        },
        {
            "buffer" : 0,
            "byteLength" : 300,
            "byteOffset" : 781008
        },
        {
            "buffer" : 0,
            "byteLength" : 300,
            "byteOffset" : 781308
        },
        {
            "buffer" : 0,
            "byteLength" : 400,
            "byteOffset" : 781608
        },
        {
            "buffer" : 0,
            "byteLength" : 300,
            "byteOffset" : 782008
        },
        {
            "buffer" : 0,
            "byteLength" : 300,
            "byteOffset" : 782308
        },
        {
            "buffer" : 0,
            "byteLength" : 400,
            "byteOffset" : 782608
        },
        {
            "buffer" : 0,
            "byteLength" : 300,
            "byteOffset" : 783008
        },
        {
            "buffer" : 0,
            "byteLength" : 300,
            "byteOffset" : 783308
        },
        {
            "buffer" : 0,
            "byteLength" : 400,
            "byteOffset" : 783608
        },
        {
            "buffer" : 0,
            "byteLength" : 300,
            "byteOffset" : 784008
        }
    ],
    "samplers" : [
        {
            "magFilter" : 9729,
            "minFilter" : 9987
        }
    ],
    "buffers" : [
        {
            "byteLength" : 784308,
            "uri" : "data:application/octet-stream;base64,"
        }
    ]
}
