{
    "asset" : {
        "generator" : "Khronos glTF Blender I/O v1.6.16",
        "version" : "2.0"
    },
    "scene" : 0,
    "scenes" : [
        {
            "name" : "Scene",
            "nodes" : [
                8
            ]
        }
    ],
    "nodes" : [
        {
            "name" : "Golden_Duck"
        },
        {
            "name" : "beak_down_02",
            "rotation" : [
                2.60770320892334e-07,
                -4.618527782440651e-14,
                -6.8306901035767014e-15,
                1
            ],
            "scale" : [
                1,
                1.0000001192092896,
                1.0000001192092896
            ],
            "translation" : [
                6.892262910569713e-13,
                4.461302757263184,
                5.722046353184851e-06
            ]
        },
        {
            "children" : [
                1
            ],
            "name" : "beak_down_01",
            "rotation" : [
                -0.9238796234130859,
                -5.778358058705635e-08,
                -2.3072574395748696e-14,
                0.38268330693244934
            ],
            "scale" : [
                1,
                0.9999999403953552,
                0.9999998211860657
            ],
            "translation" : [
                2.409131411695853e-06,
                31.113611221313477,
                -15.954955101013184
            ]
        },
        {
            "name" : "beak_up_03",
            "rotation" : [
                7.450582728552035e-08,
                -1.4210853021136109e-14,
                -2.9894058521738164e-15,
                1
            ],
            "translation" : [
                4.1375436410362454e-10,
                2.780529022216797,
                -0.0010514259338378906
            ]
        },
        {
            "children" : [
                3
            ],
            "name" : "beak_up_02",
            "rotation" : [
                -1.638400277670371e-07,
                1.1920921139108032e-07,
                -1.2820852712813746e-10,
                1
            ],
            "scale" : [
                1,
                0.9999999403953552,
                0.9999998807907104
            ],
            "translation" : [
                3.181032937060735e-10,
                4.454957008361816,
                -0.002071406925097108
            ]
        },
        {
            "children" : [
                4
            ],
            "name" : "beak_up_01",
            "rotation" : [
                -0.4336211681365967,
                -2.4707673407231567e-11,
                -6.552623688094172e-08,
                0.9010952711105347
            ],
            "scale" : [
                1,
                0.9999998807907104,
                0.9999998807907104
            ],
            "translation" : [
                2.409130502201151e-06,
                31.113609313964844,
                -15.954951286315918
            ]
        },
        {
            "children" : [
                2,
                5
            ],
            "name" : "Joint_Base",
            "rotation" : [
                1.124493835720497e-14,
                -1,
                -1.3400861575973977e-07,
                7.549790126404332e-08
            ],
            "translation" : [
                -1.600819032887557e-08,
                -11.10836410522461,
                -0.13830752670764923
            ]
        },
        {
            "mesh" : 0,
            "name" : "Golden_Duck.001",
            "skin" : 0
        },
        {
            "children" : [
                0,
                7,
                6
            ],
            "name" : "Armature.001"
        }
    ],
    "animations" : [
        {
            "channels" : [
                {
                    "sampler" : 0,
                    "target" : {
                        "node" : 6,
                        "path" : "translation"
                    }
                },
                {
                    "sampler" : 1,
                    "target" : {
                        "node" : 6,
                        "path" : "rotation"
                    }
                },
                {
                    "sampler" : 2,
                    "target" : {
                        "node" : 6,
                        "path" : "scale"
                    }
                },
                {
                    "sampler" : 3,
                    "target" : {
                        "node" : 2,
                        "path" : "translation"
                    }
                },
                {
                    "sampler" : 4,
                    "target" : {
                        "node" : 2,
                        "path" : "rotation"
                    }
                },
                {
                    "sampler" : 5,
                    "target" : {
                        "node" : 2,
                        "path" : "scale"
                    }
                },
                {
                    "sampler" : 6,
                    "target" : {
                        "node" : 1,
                        "path" : "translation"
                    }
                },
                {
                    "sampler" : 7,
                    "target" : {
                        "node" : 1,
                        "path" : "rotation"
                    }
                },
                {
                    "sampler" : 8,
                    "target" : {
                        "node" : 1,
                        "path" : "scale"
                    }
                },
                {
                    "sampler" : 9,
                    "target" : {
                        "node" : 5,
                        "path" : "translation"
                    }
                },
                {
                    "sampler" : 10,
                    "target" : {
                        "node" : 5,
                        "path" : "rotation"
                    }
                },
                {
                    "sampler" : 11,
                    "target" : {
                        "node" : 5,
                        "path" : "scale"
                    }
                },
                {
                    "sampler" : 12,
                    "target" : {
                        "node" : 4,
                        "path" : "translation"
                    }
                },
                {
                    "sampler" : 13,
                    "target" : {
                        "node" : 4,
                        "path" : "rotation"
                    }
                },
                {
                    "sampler" : 14,
                    "target" : {
                        "node" : 4,
                        "path" : "scale"
                    }
                },
                {
                    "sampler" : 15,
                    "target" : {
                        "node" : 3,
                        "path" : "translation"
                    }
                },
                {
                    "sampler" : 16,
                    "target" : {
                        "node" : 3,
                        "path" : "rotation"
                    }
                },
                {
                    "sampler" : 17,
                    "target" : {
                        "node" : 3,
                        "path" : "scale"
                    }
                }
            ],
            "name" : "Anim_0",
            "samplers" : [
                {
                    "input" : 7,
                    "interpolation" : "LINEAR",
                    "output" : 8
                },
                {
                    "input" : 7,
                    "interpolation" : "LINEAR",
                    "output" : 9
                },
                {
                    "input" : 7,
                    "interpolation" : "LINEAR",
                    "output" : 10
                },
                {
                    "input" : 7,
                    "interpolation" : "LINEAR",
                    "output" : 11
                },
                {
                    "input" : 7,
                    "interpolation" : "LINEAR",
                    "output" : 12
                },
                {
                    "input" : 7,
                    "interpolation" : "LINEAR",
                    "output" : 13
                },
                {
                    "input" : 7,
                    "interpolation" : "LINEAR",
                    "output" : 14
                },
                {
                    "input" : 7,
                    "interpolation" : "LINEAR",
                    "output" : 15
                },
                {
                    "input" : 7,
                    "interpolation" : "LINEAR",
                    "output" : 16
                },
                {
                    "input" : 7,
                    "interpolation" : "LINEAR",
                    "output" : 17
                },
                {
                    "input" : 7,
                    "interpolation" : "LINEAR",
                    "output" : 18
                },
                {
                    "input" : 7,
                    "interpolation" : "LINEAR",
                    "output" : 19
                },
                {
                    "input" : 7,
                    "interpolation" : "LINEAR",
                    "output" : 20
                },
                {
                    "input" : 7,
                    "interpolation" : "LINEAR",
                    "output" : 21
                },
                {
                    "input" : 7,
                    "interpolation" : "LINEAR",
                    "output" : 22
                },
                {
                    "input" : 7,
                    "interpolation" : "LINEAR",
                    "output" : 23
                },
                {
                    "input" : 7,
                    "interpolation" : "LINEAR",
                    "output" : 24
                },
                {
                    "input" : 7,
                    "interpolation" : "LINEAR",
                    "output" : 25
                }
            ]
        }
    ],
    "materials" : [
        {
            "doubleSided" : true,
            "name" : "Golden_Duck.001",
            "normalTexture" : {
                "index" : 0
            },
            "pbrMetallicRoughness" : {
                "baseColorFactor" : [
                    0.800000011920929,
                    0.800000011920929,
                    0.800000011920929,
                    1
                ],
                "baseColorTexture" : {
                    "index" : 1
                },
                "metallicRoughnessTexture" : {
                    "index" : 2
                }
            }
        }
    ],
    "meshes" : [
        {
            "name" : "Golden_Duck.001",
            "primitives" : [
                {
                    "attributes" : {
                        "POSITION" : 0,
                        "NORMAL" : 1,
                        "TEXCOORD_0" : 2,
                        "JOINTS_0" : 3,
                        "WEIGHTS_0" : 4
                    },
                    "indices" : 5,
                    "material" : 0
                }
            ]
        }
    ],
    "textures" : [
        {
            "sampler" : 0,
            "source" : 0
        },
        {
            "sampler" : 0,
            "source" : 1
        },
        {
            "sampler" : 0,
            "source" : 2
        }
    ],
    "images" : [
        {
            "bufferView" : 6,
            "mimeType" : "image/jpeg",
            "name" : "Image_2"
        },
        {
            "bufferView" : 7,
            "mimeType" : "image/jpeg",
            "name" : "Image_0"
        },
        {
            "bufferView" : 8,
            "mimeType" : "image/jpeg",
            "name" : "Image_1"
        }
    ],
    "skins" : [
        {
            "inverseBindMatrices" : 6,
            "joints" : [
                6,
                2,
                1,
                5,
                4,
                3
            ],
            "name" : "Armature.001"
        }
    ],
    "accessors" : [
        {
            "bufferView" : 0,
            "componentType" : 5126,
            "count" : 6578,
            "max" : [
                19.646493911743164,
                34.14176940917969,
                22.153709411621094
            ],
            "min" : [
                -19.646493911743164,
                -9.634112358093262,
                -21.604097366333008
            ],
            "type" : "VEC3"
        },
        {
            "bufferView" : 1,
            "componentType" : 5126,
            "count" : 6578,
            "type" : "VEC3"
        },
        {
            "bufferView" : 2,
            "componentType" : 5126,
            "count" : 6578,
            "type" : "VEC2"
        },
        {
            "bufferView" : 3,
            "componentType" : 5121,
            "count" : 6578,
            "type" : "VEC4"
        },
        {
            "bufferView" : 4,
            "componentType" : 5126,
            "count" : 6578,
            "type" : "VEC4"
        },
        {
            "bufferView" : 5,
            "componentType" : 5123,
            "count" : 38244,
            "type" : "SCALAR"
        },
        {
            "bufferView" : 9,
            "componentType" : 5126,
            "count" : 6,
            "type" : "MAT4"
        },
        {
            "bufferView" : 10,
            "componentType" : 5126,
            "count" : 25,
            "max" : [
                1
            ],
            "min" : [
                0
            ],
            "type" : "SCALAR"
        },
        {
            "bufferView" : 11,
            "componentType" : 5126,
            "count" : 25,
            "type" : "VEC3"
        },
        {
            "bufferView" : 12,
            "componentType" : 5126,
            "count" : 25,
            "type" : "VEC4"
        },
        {
            "bufferView" : 13,
            "componentType" : 5126,
            "count" : 25,
            "type" : "VEC3"
        },
        {
            "bufferView" : 14,
            "componentType" : 5126,
            "count" : 25,
            "type" : "VEC3"
        },
        {
            "bufferView" : 15,
            "componentType" : 5126,
            "count" : 25,
            "type" : "VEC4"
        },
        {
            "bufferView" : 16,
            "componentType" : 5126,
            "count" : 25,
            "type" : "VEC3"
        },
        {
            "bufferView" : 17,
            "componentType" : 5126,
            "count" : 25,
            "type" : "VEC3"
        },
        {
            "bufferView" : 18,
            "componentType" : 5126,
            "count" : 25,
            "type" : "VEC4"
        },
        {
            "bufferView" : 19,
            "componentType" : 5126,
            "count" : 25,
            "type" : "VEC3"
        },
        {
            "bufferView" : 20,
            "componentType" : 5126,
            "count" : 25,
            "type" : "VEC3"
        },
        {
            "bufferView" : 21,
            "componentType" : 5126,
            "count" : 25,
            "type" : "VEC4"
        },
        {
            "bufferView" : 22,
            "componentType" : 5126,
            "count" : 25,
            "type" : "VEC3"
        },
        {
            "bufferView" : 23,
            "componentType" : 5126,
            "count" : 25,
            "type" : "VEC3"
        },
        {
            "bufferView" : 24,
            "componentType" : 5126,
            "count" : 25,
            "type" : "VEC4"
        },
        {
            "bufferView" : 25,
            "componentType" : 5126,
            "count" : 25,
            "type" : "VEC3"
        },
        {
            "bufferView" : 26,
            "componentType" : 5126,
            "count" : 25,
            "type" : "VEC3"
        },
        {
            "bufferView" : 27,
            "componentType" : 5126,
            "count" : 25,
            "type" : "VEC4"
        },
        {
            "bufferView" : 28,
            "componentType" : 5126,
            "count" : 25,
            "type" : "VEC3"
        }
    ],
    "bufferViews" : [
        {
            "buffer" : 0,
            "byteLength" : 78936,
            "byteOffset" : 0
        },
        {
            "buffer" : 0,
            "byteLength" : 78936,
            "byteOffset" : 78936
        },
        {
            "buffer" : 0,
            "byteLength" : 52624,
            "byteOffset" : 157872
        },
        {
            "buffer" : 0,
            "byteLength" : 26312,
            "byteOffset" : 210496
        },
        {
            "buffer" : 0,
            "byteLength" : 105248,
            "byteOffset" : 236808
        },
        {
            "buffer" : 0,
            "byteLength" : 76488,
            "byteOffset" : 342056
        },
        {
            "buffer" : 0,
            "byteLength" : 104668,
            "byteOffset" : 418544
        },
        {
            "buffer" : 0,
            "byteLength" : 26583,
            "byteOffset" : 523212
        },
        {
            "buffer" : 0,
            "byteLength" : 122779,
            "byteOffset" : 549796
        },
        {
            "buffer" : 0,
            "byteLength" : 384,
            "byteOffset" : 672576
        },
        {
            "buffer" : 0,
            "byteLength" : 100,
            "byteOffset" : 672960
        },
        {
            "buffer" : 0,
            "byteLength" : 300,
            "byteOffset" : 673060
        },
        {
            "buffer" : 0,
            "byteLength" : 400,
            "byteOffset" : 673360
        },
        {
            "buffer" : 0,
            "byteLength" : 300,
            "byteOffset" : 673760
        },
        {
            "buffer" : 0,
            "byteLength" : 300,
            "byteOffset" : 674060
        },
        {
            "buffer" : 0,
            "byteLength" : 400,
            "byteOffset" : 674360
        },
        {
            "buffer" : 0,
            "byteLength" : 300,
            "byteOffset" : 674760
        },
        {
            "buffer" : 0,
            "byteLength" : 300,
            "byteOffset" : 675060
        },
        {
            "buffer" : 0,
            "byteLength" : 400,
            "byteOffset" : 675360
        },
        {
            "buffer" : 0,
            "byteLength" : 300,
            "byteOffset" : 675760
        },
        {
            "buffer" : 0,
            "byteLength" : 300,
            "byteOffset" : 676060
        },
        {
            "buffer" : 0,
            "byteLength" : 400,
            "byteOffset" : 676360
        },
        {
            "buffer" : 0,
            "byteLength" : 300,
            "byteOffset" : 676760
        },
        {
            "buffer" : 0,
            "byteLength" : 300,
            "byteOffset" : 677060
        },
        {
            "buffer" : 0,
            "byteLength" : 400,
            "byteOffset" : 677360
        },
        {
            "buffer" : 0,
            "byteLength" : 300,
            "byteOffset" : 677760
        },
        {
            "buffer" : 0,
            "byteLength" : 300,
            "byteOffset" : 678060
        },
        {
            "buffer" : 0,
            "byteLength" : 400,
            "byteOffset" : 678360
        },
        {
            "buffer" : 0,
            "byteLength" : 300,
            "byteOffset" : 678760
        }
    ],
    "samplers" : [
        {
            "magFilter" : 9729,
            "minFilter" : 9987
        }
    ],
    "buffers" : [
        {
            "byteLength" : 679060,
            "uri" : "data:application/octet-stream;base64,"
        }
    ]
}
